<?xml version="1.0" standalone="no"?>
<!DOCTYPE svg PUBLIC "-//W3C//DTD SVG 20010904//EN"
 "http://www.w3.org/TR/2001/REC-SVG-20010904/DTD/svg10.dtd">
<svg version="1.0" xmlns="http://www.w3.org/2000/svg"
 width="512.000000pt" height="512.000000pt" viewBox="0 0 512.000000 512.000000"
 preserveAspectRatio="xMidYMid meet">
<metadata>
Created by potrace 1.11, written by Peter Selinger 2001-2013
</metadata>
<g transform="translate(0.000000,512.000000) scale(0.100000,-0.100000)"
fill="#000000" stroke="none">
<path d="M435 4702 c-20 -3 -20 -10 -19 -2136 0 -1173 3 -2137 6 -2142 6 -9
1063 -13 1071 -4 2 3 159 212 348 465 189 253 349 467 356 475 7 8 489 652
1073 1430 583 778 1066 1422 1073 1430 7 8 23 31 37 50 13 19 29 40 35 46 37
43 279 376 275 381 -3 3 -242 6 -531 7 l-526 1 -79 -105 c-43 -57 -84 -111
-91 -120 -7 -8 -43 -56 -80 -106 -37 -50 -78 -104 -90 -120 -12 -16 -135 -180
-273 -364 -137 -184 -256 -342 -263 -350 -6 -8 -50 -67 -97 -130 -47 -63 -89
-119 -93 -125 -5 -5 -69 -91 -143 -190 -74 -99 -143 -191 -154 -205 -10 -14
-117 -156 -237 -316 -120 -160 -228 -304 -240 -320 -12 -16 -85 -114 -162
-217 l-141 -188 -2 1427 -3 1427 -515 1 c-283 1 -524 0 -535 -2z"/>
<path d="M3745 2691 c-13 -2 -104 -116 -250 -313 -126 -171 -234 -315 -240
-322 -19 -22 -215 -286 -218 -293 -1 -5 215 -8 481 -8 l483 0 262 350 c144
192 267 356 274 365 75 96 161 216 157 220 -6 5 -918 7 -949 1z"/>
<path d="M2725 1345 c-7 -5 -93 -118 -191 -250 -99 -132 -184 -246 -191 -255
-61 -76 -311 -416 -308 -419 6 -5 1965 -5 1970 0 24 25 693 924 689 928 -10
10 -1957 6 -1969 -4z"/>
</g>
</svg>
