<?xml version="1.0" standalone="no"?>
<!DOCTYPE svg PUBLIC "-//W3C//DTD SVG 20010904//EN"
 "http://www.w3.org/TR/2001/REC-SVG-20010904/DTD/svg10.dtd">
<svg version="1.0" xmlns="http://www.w3.org/2000/svg"
 width="200.000000pt" height="200.000000pt" viewBox="0 0 200.000000 200.000000"
 preserveAspectRatio="xMidYMid meet">
<metadata>
Created by potrace 1.11, written by Peter Selinger 2001-2013
</metadata>
<g transform="translate(0.000000,200.000000) scale(0.100000,-0.100000)"
fill="#000000" stroke="none">
<path d="M915 1919 c4 -10 -3 -14 -27 -13 -18 0 -39 -4 -45 -9 -9 -6 -13 -5
-13 4 0 12 -2 12 -9 0 -5 -7 -14 -10 -20 -7 -6 4 -11 2 -11 -4 0 -7 -8 -9 -21
-5 -16 6 -20 4 -13 -6 6 -10 3 -10 -11 1 -11 9 -16 10 -11 3 4 -7 2 -14 -3
-14 -12 -2 -26 -5 -38 -9 -5 -1 -11 -2 -15 -1 -5 0 -8 -4 -8 -11 0 -6 -3 -8
-7 -5 -3 4 -13 1 -21 -6 -13 -10 -15 -9 -8 3 4 9 2 8 -7 -2 -8 -10 -17 -15
-20 -11 -4 3 -9 -2 -13 -11 -3 -9 -10 -14 -14 -11 -5 3 -11 1 -15 -5 -4 -6
-11 -8 -16 -5 -5 4 -9 1 -9 -4 0 -6 -7 -11 -15 -11 -8 0 -15 -5 -15 -11 0 -6
-9 -9 -19 -6 -14 3 -18 1 -14 -9 3 -8 -3 -17 -13 -21 -11 -3 -28 -16 -40 -27
-38 -39 -65 -57 -74 -51 -6 3 -7 -1 -4 -9 3 -9 -2 -17 -15 -21 -13 -4 -18 -13
-16 -25 2 -11 -1 -20 -6 -20 -16 0 -39 -27 -31 -35 4 -5 -1 -5 -11 -2 -10 4
-16 3 -12 -2 5 -8 -26 -64 -54 -97 -6 -7 -7 -15 -4 -18 4 -3 1 -6 -5 -6 -7 0
-11 -3 -11 -7 3 -21 -3 -24 -18 -12 -15 11 -14 10 1 -9 11 -12 14 -22 9 -22
-6 0 -14 -11 -17 -25 -4 -14 -10 -24 -14 -21 -4 3 -14 0 -22 -6 -12 -8 -12 -9
2 -4 19 6 36 -13 21 -23 -11 -7 -25 -44 -29 -79 -1 -13 -8 -30 -15 -38 -10
-13 -10 -17 2 -25 8 -5 9 -9 3 -9 -7 0 -11 -14 -10 -35 1 -19 -1 -35 -5 -35
-3 0 -4 -16 -2 -36 3 -27 1 -34 -9 -28 -10 6 -11 5 -1 -7 7 -9 11 -32 10 -52
-2 -21 1 -37 7 -37 6 0 5 -4 -3 -9 -10 -6 -10 -10 -1 -16 7 -4 9 -17 6 -31 -4
-13 -2 -24 3 -24 5 0 8 -8 6 -17 -1 -10 2 -26 7 -35 5 -12 5 -18 -2 -18 -5 0
0 -10 12 -22 14 -14 17 -23 10 -26 -8 -2 -7 -10 3 -26 8 -12 12 -26 8 -29 -3
-4 -1 -7 6 -7 7 0 10 -4 6 -9 -3 -5 -1 -12 5 -16 5 -3 10 -15 10 -26 0 -11 5
-17 10 -14 6 3 10 -3 10 -13 0 -11 7 -25 15 -32 9 -7 13 -15 11 -17 -5 -5 -1
-12 39 -57 13 -16 22 -32 20 -36 -3 -4 2 -11 11 -14 8 -3 12 -11 9 -16 -4 -6
-1 -9 7 -8 7 2 12 -4 10 -12 -2 -8 -1 -12 3 -8 4 4 14 0 23 -8 13 -14 13 -17
1 -25 -9 -5 -10 -9 -2 -9 6 0 15 5 19 11 4 8 11 3 20 -12 7 -13 15 -22 17 -19
3 3 19 -10 36 -27 17 -18 31 -30 31 -28 0 3 10 -3 22 -14 11 -11 24 -18 28
-16 3 2 12 -4 20 -15 7 -10 19 -16 27 -13 7 3 13 0 13 -7 0 -6 4 -9 9 -6 5 4
11 1 13 -4 2 -6 13 -12 25 -13 12 0 20 -4 18 -8 -3 -3 7 -11 22 -18 25 -11 25
-11 12 6 -13 17 -13 17 7 1 11 -10 30 -18 42 -18 11 0 24 -5 27 -10 3 -6 22
-10 41 -10 19 0 33 -4 30 -9 -3 -5 9 -8 27 -7 23 1 31 -3 29 -14 -2 -12 1 -11
11 2 8 10 16 15 19 13 3 -3 22 -6 42 -7 20 -1 36 -6 36 -12 0 -6 4 -4 10 4 5
8 12 11 16 8 4 -4 15 -3 25 2 11 7 20 7 24 0 3 -5 16 -6 28 -2 12 4 31 7 42 7
11 -1 26 3 33 8 11 9 17 -2 13 -26 -1 -5 3 -6 8 -2 6 3 8 12 4 20 -3 10 1 15
14 15 11 0 23 3 27 7 11 12 36 12 36 0 0 -6 6 -2 14 8 8 11 19 16 30 12 9 -4
15 -3 12 2 -7 11 22 23 35 15 5 -3 9 -1 9 3 0 5 24 20 54 33 30 13 52 28 49
33 -3 6 -1 7 5 3 6 -3 14 -1 17 5 4 5 14 8 22 5 8 -3 12 -2 9 2 -3 5 7 17 22
28 15 10 40 33 56 49 16 17 25 23 22 15 -4 -8 2 -4 14 10 11 14 33 36 48 49
15 13 20 20 12 16 -8 -3 -6 2 6 12 12 10 26 29 33 41 6 12 19 22 27 22 8 0 12
4 9 10 -7 11 25 70 38 70 4 0 5 5 2 10 -3 6 -2 10 4 10 6 0 7 8 4 17 -5 12 -2
15 10 10 9 -3 19 -1 23 5 4 7 3 8 -4 4 -13 -8 -17 6 -5 18 7 6 11 24 15 59 1
9 6 17 10 17 4 0 8 11 8 25 0 14 4 25 10 25 5 0 9 3 8 8 -5 21 15 112 25 112
7 0 5 4 -3 10 -13 8 -12 11 5 25 11 9 15 14 8 11 -8 -5 -11 8 -10 43 0 32 5
48 11 43 6 -3 5 2 -2 11 -8 9 -12 22 -9 29 2 7 0 23 -4 36 -6 14 -5 22 2 22 8
0 8 4 0 14 -6 7 -9 21 -5 30 3 9 2 16 -3 16 -5 0 -10 10 -10 23 -2 30 -7 49
-17 66 -7 10 -5 12 5 6 10 -6 10 -3 -2 11 -8 10 -15 26 -14 34 0 8 -6 21 -13
29 -11 12 -11 15 0 22 10 7 9 9 -4 9 -16 0 -22 13 -21 47 1 7 -3 10 -8 7 -5
-3 -9 1 -9 10 0 8 -4 16 -8 18 -4 2 -20 24 -35 50 -15 26 -33 53 -40 60 -8 7
-19 24 -26 36 -7 12 -16 20 -22 17 -9 -6 -14 9 -9 30 1 5 -1 7 -5 3 -4 -4 -22
8 -41 25 -65 61 -84 78 -84 72 0 -3 -15 5 -33 19 -19 15 -39 26 -45 26 -7 0
-12 5 -12 11 0 5 -4 7 -10 4 -5 -3 -10 -1 -10 5 0 6 -3 9 -7 7 -5 -3 -14 1
-21 9 -10 10 -10 14 -1 14 7 0 9 3 6 6 -4 4 -13 1 -22 -6 -10 -8 -15 -9 -15
-1 0 6 -9 11 -20 11 -11 0 -20 4 -20 9 0 5 -7 12 -16 15 -10 4 -13 2 -8 -6 5
-8 2 -9 -12 -4 -10 5 -25 9 -31 9 -8 0 -9 4 -3 12 6 8 -1 10 -27 7 -28 -4 -34
-2 -27 9 7 12 5 12 -9 0 -9 -7 -17 -10 -17 -5 0 5 -12 10 -27 10 -112 6 -133
8 -133 18 0 7 -3 7 -8 1 -10 -14 -74 -16 -89 -3 -10 8 -12 7 -8 -3z"/>
</g>
</svg>
